<svg width="59" height="60" viewBox="0 0 59 60" fill="none" xmlns="http://www.w3.org/2000/svg">
<g filter="url(#filter0_d_96_1905)">
<path d="M35.0581 17.3465C35.2767 16.4248 35.3345 15.4176 35.2316 14.3247C35.135 13.1799 34.8476 12.3016 34.3695 11.6896C34.1418 11.3981 33.89 11.196 33.614 11.083C33.4874 11.0412 33.3058 11.0188 33.069 11.0161C32.8386 10.9615 32.6569 10.9392 32.5239 10.9492C32.3682 10.9301 32.2757 10.9319 32.2466 10.9547C31.886 12.175 31.8746 13.6622 32.2125 15.4163C32.6188 17.2577 33.2099 19.0956 33.9858 20.9297C34.6078 19.0828 34.9652 17.8884 35.0581 17.3465ZM35.2428 30.648L35.1991 30.6822C33.7111 34.0036 33.3965 36.9949 34.2554 39.656C34.4448 40.2589 34.642 40.6914 34.8469 40.9537C34.8697 40.9829 34.9152 41.0412 34.9835 41.1286C35.0582 41.1641 35.1183 41.211 35.1638 41.2693C35.8615 41.3813 36.641 41.1477 37.5026 40.5684L37.9834 40.1928C39.5571 38.9632 40.5716 37.1381 41.0269 34.7174C39.4195 33.8614 37.7952 32.7135 36.154 31.2737C35.7542 30.8821 35.4505 30.6735 35.2428 30.648ZM42.1839 29.8009C42.3004 29.7098 42.381 29.4826 42.4257 29.1192C42.7052 27.9152 42.824 26.6256 42.7821 25.2505C42.8449 24.3097 42.66 23.5624 42.2274 23.0087L42.0567 22.7902C42.0111 22.7319 41.9251 22.6818 41.7985 22.6399C41.6783 22.5461 41.5954 22.4701 41.5499 22.4118C41.5271 22.3826 41.4993 22.287 41.4665 22.1249C41.4793 22.0211 41.5439 21.9236 41.6605 21.8326C41.7188 21.787 41.8435 21.7365 42.0348 21.6809C42.2324 21.5734 42.3749 21.4856 42.4624 21.4172L42.5498 21.3489C42.6372 21.2806 42.8626 21.2688 43.226 21.3134C43.2779 21.3198 43.5033 21.3079 43.9022 21.2779C44.9013 21.2952 45.6736 21.4427 46.2191 21.7204C46.5178 21.8625 46.8152 22.123 47.1112 22.5018C47.6576 23.2012 48.0456 24.1183 48.2751 25.2531C48.7952 27.2403 48.788 29.8741 48.2534 33.1545C49.3381 33.7619 49.9811 34.1043 50.1824 34.1817C50.5394 34.2783 50.7698 34.3329 50.8736 34.3456C51.1168 34.2965 51.3404 34.1922 51.5444 34.0328C51.7775 33.8506 51.9942 33.5874 52.1946 33.2432C52.3822 33.0028 52.5192 32.6376 52.6058 32.1476C52.6986 31.6057 52.7774 31.286 52.8421 31.1886C52.9331 31.3052 52.9919 31.4705 53.0183 31.6845C53.0739 31.8757 53.113 31.9859 53.1358 32.0151L53.3407 32.2773C53.5912 32.5979 53.7442 32.8538 53.7997 33.0451C54.0056 33.729 54.0443 34.3793 53.9159 34.9958C53.8521 35.5149 53.6309 35.9225 53.252 36.2185C52.9897 36.4234 52.7743 36.5682 52.6059 36.6529L52.4747 36.7554C52.4164 36.8009 52.3208 36.8287 52.1878 36.8387C52.0776 36.8779 51.9415 36.9139 51.7794 36.9466C51.6692 36.9858 51.5736 37.0136 51.4925 37.03C51.3823 37.0691 51.217 37.1279 50.9966 37.2062C50.8281 37.2909 50.6888 37.3528 50.5786 37.392C50.2252 37.4804 49.8377 37.525 49.4161 37.5259C49.0236 37.5041 48.5937 37.4645 48.1265 37.4071C47.6365 37.3206 47.2877 37.2646 47.0801 37.2391C45.7924 40.2163 44.7929 42.2408 44.0817 43.3127C44.0525 43.3355 43.986 43.3405 43.8822 43.3278C43.7784 43.315 43.686 43.3169 43.6049 43.3332C43.3845 43.4116 43.2015 43.5077 43.0557 43.6215C42.9683 43.6898 42.8517 43.7809 42.706 43.8947C42.5831 44.0377 42.507 44.1206 42.4779 44.1434C40.865 45.2627 39.2881 45.7672 37.7472 45.6571C36.2063 45.5469 34.413 45.0237 32.3675 44.0876C31.7828 43.6996 31.3084 43.2725 30.9441 42.8062C30.1927 41.8445 29.8457 40.3792 29.903 38.4102C29.8884 37.6707 29.9002 37.1452 29.9385 36.8337C30.0641 34.9522 30.2895 33.4386 30.6146 32.2929C31.3094 29.6381 31.8585 27.8481 32.262 26.9228C29.7164 22.7636 28.1144 18.4304 27.4558 13.9233C27.423 13.7612 27.4176 13.4838 27.4394 13.0913C27.4613 12.6988 27.433 12.3923 27.3547 12.1719C27.3447 12.039 27.2923 11.8218 27.1976 11.5203C27.132 11.1961 27.1006 10.9156 27.1033 10.6788C27.1907 10.6105 27.2586 10.4871 27.3068 10.3086C27.3323 10.101 27.3888 9.963 27.4762 9.89469C31.1773 7.00307 34.5615 6.04856 37.6289 7.03116C38.5961 7.308 39.6033 8.1167 40.6507 9.45725C41.0378 9.95268 41.3064 10.4467 41.4567 10.9394C41.852 12.2263 41.9567 13.4116 41.771 14.4953C41.6144 15.5563 41.1358 16.9862 40.3353 18.7849C39.7188 20.1582 39.0795 21.5025 38.4174 22.8176C37.7326 24.1035 37.2982 24.9592 37.1143 25.3845C37.2381 25.6631 37.3797 25.9045 37.5391 26.1085C37.8807 26.5456 38.2773 26.9632 38.729 27.3611C39.158 27.73 39.504 28.0228 39.7672 28.2395C40.0596 28.4335 40.4753 28.6953 41.0145 29.025C41.5536 29.3546 41.9434 29.6133 42.1839 29.8009Z" fill="white"/>
</g>
<defs>
<filter id="filter0_d_96_1905" x="0.609493" y="0.0741873" width="57.8007" height="59.2534" filterUnits="userSpaceOnUse" color-interpolation-filters="sRGB">
<feFlood flood-opacity="0" result="BackgroundImageFix"/>
<feColorMatrix in="SourceAlpha" type="matrix" values="0 0 0 0 0 0 0 0 0 0 0 0 0 0 0 0 0 0 127 0" result="hardAlpha"/>
<feOffset dx="-6.52631" dy="3.26315"/>
<feGaussianBlur stdDeviation="3.26315"/>
<feComposite in2="hardAlpha" operator="out"/>
<feColorMatrix type="matrix" values="0 0 0 0 1 0 0 0 0 1 0 0 0 0 1 0 0 0 0.25 0"/>
<feBlend mode="normal" in2="BackgroundImageFix" result="effect1_dropShadow_96_1905"/>
<feBlend mode="normal" in="SourceGraphic" in2="effect1_dropShadow_96_1905" result="shape"/>
</filter>
</defs>
</svg>
