<svg width="34" height="34" viewBox="0 0 34 34" fill="none" xmlns="http://www.w3.org/2000/svg">
<rect x="0.386364" y="0.386364" width="33.2273" height="33.2273" rx="16.6136" fill="white" fill-opacity="0.25"/>
<rect x="0.386364" y="0.386364" width="33.2273" height="33.2273" rx="16.6136" stroke="white" stroke-width="0.772727"/>
<path d="M22.7949 23.3752L10.0449 10.6252" stroke="white" stroke-width="1.15909" stroke-miterlimit="10" stroke-linecap="round"/>
<path d="M15.8413 12.687V13.9113C15.8413 13.9496 15.8566 13.9863 15.8836 14.0134L16.753 14.8828C16.7732 14.903 16.799 14.9168 16.8271 14.9224C16.8552 14.9281 16.8843 14.9252 16.9108 14.9143C16.9372 14.9034 16.9599 14.8848 16.9758 14.861C16.9918 14.8372 17.0003 14.8093 17.0004 14.7806V12.0948C17.002 11.9344 16.9602 11.7766 16.8794 11.6381C16.7986 11.4996 16.6818 11.3856 16.5414 11.308C16.3968 11.2302 16.2329 11.1951 16.0691 11.2068C15.9052 11.2185 15.7481 11.2766 15.616 11.3743C15.6077 11.3801 15.5997 11.3862 15.5921 11.3928L14.4351 12.34C14.4195 12.3528 14.4067 12.3688 14.3977 12.3869C14.3886 12.4049 14.3834 12.4247 14.3824 12.4449C14.3814 12.4651 14.3846 12.4853 14.3919 12.5041C14.3992 12.523 14.4103 12.5401 14.4246 12.5544L15.0422 13.1724C15.0677 13.1978 15.1017 13.2129 15.1377 13.2146C15.1736 13.2164 15.2089 13.2047 15.2367 13.1818L15.8413 12.687ZM15.8413 21.3135L13.0134 18.9983C12.8058 18.8296 12.5463 18.738 12.2789 18.7389H10.0458V15.2616H11.883C11.9116 15.2616 11.9396 15.253 11.9634 15.2371C11.9872 15.2212 12.0057 15.1985 12.0166 15.172C12.0276 15.1456 12.0304 15.1164 12.0248 15.0884C12.0192 15.0603 12.0054 15.0345 11.9851 15.0142L11.1158 14.1449C11.0887 14.1178 11.052 14.1026 11.0137 14.1025H9.75604C9.52548 14.1025 9.30436 14.1941 9.14134 14.3572C8.97831 14.5202 8.88672 14.7413 8.88672 14.9719V19.0287C8.88672 19.2592 8.97831 19.4804 9.14134 19.6434C9.30436 19.8064 9.52548 19.898 9.75604 19.898H12.2829L15.5921 22.6074C15.5997 22.6139 15.6077 22.6201 15.616 22.6258C15.7497 22.7248 15.9091 22.7833 16.0751 22.7941C16.2412 22.805 16.4068 22.7678 16.5523 22.6871C16.6898 22.6087 16.8039 22.4951 16.8827 22.3578C16.9615 22.2206 17.0021 22.0647 17.0004 21.9065V20.0892C17.0003 20.0509 16.9851 20.0142 16.958 19.9871L16.0887 19.1178C16.0684 19.0975 16.0426 19.0837 16.0145 19.0781C15.9864 19.0725 15.9573 19.0753 15.9309 19.0863C15.9044 19.0972 15.8817 19.1157 15.8658 19.1395C15.8498 19.1633 15.8413 19.1913 15.8413 19.2199V21.3135ZM20.4776 17.0003C20.4776 16.1107 20.2672 15.266 19.8347 14.4188C19.7632 14.2847 19.642 14.1841 19.4971 14.1386C19.3522 14.0931 19.1952 14.1062 19.06 14.1752C18.9247 14.2443 18.8219 14.3636 18.7737 14.5077C18.7255 14.6517 18.7358 14.8089 18.8024 14.9454C19.1497 15.626 19.3185 16.2983 19.3185 17.0003C19.3185 17.0969 19.3148 17.195 19.3073 17.2948C19.3042 17.3363 19.3101 17.378 19.3246 17.4171C19.3391 17.4562 19.3619 17.4917 19.3913 17.5211L20.1035 18.2336C20.1219 18.2521 20.145 18.2653 20.1703 18.2718C20.1957 18.2783 20.2223 18.2778 20.2473 18.2703C20.2724 18.2629 20.295 18.2488 20.3127 18.2296C20.3304 18.2104 20.3426 18.1868 20.348 18.1612C20.4336 17.7801 20.4771 17.3908 20.4776 17.0003ZM22.7958 17.0003C22.7958 15.1461 22.322 13.9616 21.5578 12.6515C21.4793 12.5209 21.3525 12.4264 21.2049 12.3886C21.0572 12.3508 20.9007 12.3726 20.769 12.4494C20.6374 12.5262 20.5413 12.6517 20.5015 12.7988C20.4618 12.9459 20.4816 13.1028 20.5566 13.2354C21.2408 14.4083 21.6367 15.4004 21.6367 17.0003C21.6367 17.8634 21.5175 18.5535 21.2973 19.1971C21.2796 19.2484 21.2767 19.3037 21.2889 19.3566C21.301 19.4095 21.3278 19.4579 21.3661 19.4963L21.9736 20.1034C21.9904 20.1202 22.011 20.1327 22.0338 20.1396C22.0565 20.1466 22.0806 20.1479 22.1039 20.1433C22.1273 20.1388 22.1491 20.1286 22.1676 20.1136C22.186 20.0986 22.2005 20.0793 22.2097 20.0574C22.5817 19.1692 22.7958 18.2285 22.7958 17.0003Z" fill="white"/>
<path d="M25.1134 17.0002C25.1134 14.3104 24.3821 12.6134 23.2838 10.8929C23.2011 10.7632 23.0703 10.6717 22.9201 10.6384C22.7699 10.6052 22.6126 10.633 22.483 10.7157C22.3533 10.7985 22.2617 10.9293 22.2285 11.0795C22.1953 11.2297 22.2231 11.3869 22.3058 11.5166C23.2958 13.0658 23.9543 14.5915 23.9543 17.0002C23.9543 18.7189 23.6319 19.9747 23.0998 21.0932C23.0869 21.1202 23.0826 21.1506 23.0876 21.1801C23.0926 21.2096 23.1066 21.2368 23.1277 21.258L23.7732 21.9042C23.7893 21.9205 23.8091 21.9327 23.8308 21.9398C23.8526 21.9469 23.8757 21.9488 23.8983 21.9453C23.9209 21.9417 23.9424 21.9329 23.9609 21.9195C23.9795 21.906 23.9946 21.8884 24.005 21.868C24.783 20.3405 25.1134 18.8475 25.1134 17.0002Z" fill="white"/>
</svg>
